<mxfile host="app.diagrams.net" agent="Mozilla/5.0 (X11; Linux x86_64; rv:130.0) Gecko/20100101 Firefox/130.0" version="24.7.17">
  <diagram name="Page-1" id="2GXR76-M0Fvng0QCse3A">
    <mxGraphModel dx="1590" dy="967" grid="1" gridSize="10" guides="1" tooltips="1" connect="1" arrows="1" fold="1" page="1" pageScale="1" pageWidth="827" pageHeight="1169" math="0" shadow="0">
      <root>
        <mxCell id="0" />
        <mxCell id="1" parent="0" />
        <mxCell id="c53XrRWpCATAmcm16bnj-1" value="&lt;div style=&quot;font-size: 24px;&quot;&gt;Browser&lt;/div&gt;" style="rounded=0;whiteSpace=wrap;html=1;fillColor=#d5e8d4;strokeColor=#82b366;strokeWidth=3;fontSize=24;" parent="1" vertex="1">
          <mxGeometry x="320" y="80" width="160" height="80" as="geometry" />
        </mxCell>
        <mxCell id="c53XrRWpCATAmcm16bnj-13" value="MariaDB" style="rounded=0;whiteSpace=wrap;html=1;strokeWidth=3;fontSize=24;fillColor=#E6E6E6;" parent="1" vertex="1">
          <mxGeometry x="320" y="480" width="160" height="80" as="geometry" />
        </mxCell>
        <mxCell id="c53XrRWpCATAmcm16bnj-14" value="&lt;div style=&quot;font-size: 15px;&quot;&gt;Database&lt;/div&gt;" style="rounded=0;whiteSpace=wrap;html=1;strokeWidth=3;fillColor=#E6E6E6;fontSize=15;" parent="1" vertex="1">
          <mxGeometry x="320" y="560" width="160" height="80" as="geometry" />
        </mxCell>
        <mxCell id="c53XrRWpCATAmcm16bnj-16" value="" style="endArrow=classic;startArrow=classic;html=1;rounded=0;entryX=0.5;entryY=1;entryDx=0;entryDy=0;exitX=0.5;exitY=0;exitDx=0;exitDy=0;strokeWidth=3;" parent="1" source="c53XrRWpCATAmcm16bnj-21" target="c53XrRWpCATAmcm16bnj-1" edge="1">
          <mxGeometry width="50" height="50" relative="1" as="geometry">
            <mxPoint x="260" y="280" as="sourcePoint" />
            <mxPoint x="400" y="160" as="targetPoint" />
          </mxGeometry>
        </mxCell>
        <mxCell id="c53XrRWpCATAmcm16bnj-17" value="" style="endArrow=classic;startArrow=classic;html=1;rounded=0;entryX=0.5;entryY=1;entryDx=0;entryDy=0;strokeWidth=3;exitX=0.5;exitY=0;exitDx=0;exitDy=0;" parent="1" source="c53XrRWpCATAmcm16bnj-23" target="c53XrRWpCATAmcm16bnj-1" edge="1">
          <mxGeometry width="50" height="50" relative="1" as="geometry">
            <mxPoint x="490" y="190" as="sourcePoint" />
            <mxPoint x="400" y="160" as="targetPoint" />
          </mxGeometry>
        </mxCell>
        <mxCell id="c53XrRWpCATAmcm16bnj-18" value="" style="endArrow=classic;startArrow=classic;html=1;rounded=0;exitX=0.5;exitY=0;exitDx=0;exitDy=0;strokeWidth=3;entryX=0.5;entryY=1;entryDx=0;entryDy=0;" parent="1" source="c53XrRWpCATAmcm16bnj-13" target="c53XrRWpCATAmcm16bnj-24" edge="1">
          <mxGeometry width="50" height="50" relative="1" as="geometry">
            <mxPoint x="590" y="460" as="sourcePoint" />
            <mxPoint x="560" y="430" as="targetPoint" />
          </mxGeometry>
        </mxCell>
        <mxCell id="c53XrRWpCATAmcm16bnj-21" value="Vue 3" style="rounded=0;whiteSpace=wrap;html=1;strokeWidth=3;fontSize=24;fillColor=#E6E6E6;" parent="1" vertex="1">
          <mxGeometry x="200" y="240" width="160" height="80" as="geometry" />
        </mxCell>
        <mxCell id="c53XrRWpCATAmcm16bnj-22" value="&lt;div style=&quot;font-size: 15px;&quot;&gt;Frontend&lt;/div&gt;" style="rounded=0;whiteSpace=wrap;html=1;strokeWidth=3;fillColor=#E6E6E6;fontSize=15;" parent="1" vertex="1">
          <mxGeometry x="200" y="320" width="160" height="80" as="geometry" />
        </mxCell>
        <mxCell id="c53XrRWpCATAmcm16bnj-23" value="&lt;div style=&quot;font-size: 24px;&quot;&gt;Spring boot&lt;/div&gt;" style="rounded=0;whiteSpace=wrap;html=1;strokeWidth=3;fontSize=24;fillColor=#E6E6E6;" parent="1" vertex="1">
          <mxGeometry x="440" y="240" width="160" height="80" as="geometry" />
        </mxCell>
        <mxCell id="c53XrRWpCATAmcm16bnj-24" value="&lt;div style=&quot;font-size: 15px;&quot;&gt;Java-based Backend&lt;br style=&quot;font-size: 15px;&quot;&gt;&lt;/div&gt;" style="rounded=0;whiteSpace=wrap;html=1;strokeWidth=3;fillColor=#E6E6E6;fontSize=15;" parent="1" vertex="1">
          <mxGeometry x="440" y="320" width="160" height="80" as="geometry" />
        </mxCell>
        <mxCell id="sve3FE1zwaEsIyAFE5Qh-1" value="&lt;div style=&quot;font-size: 24px;&quot;&gt;OpenAI&lt;br&gt;&lt;/div&gt;" style="rounded=0;whiteSpace=wrap;html=1;strokeWidth=3;fontSize=24;fillColor=#E6E6E6;" vertex="1" parent="1">
          <mxGeometry x="560" y="480" width="160" height="80" as="geometry" />
        </mxCell>
        <mxCell id="sve3FE1zwaEsIyAFE5Qh-2" value="AI language model API" style="rounded=0;whiteSpace=wrap;html=1;strokeWidth=3;fillColor=#E6E6E6;fontSize=15;" vertex="1" parent="1">
          <mxGeometry x="560" y="560" width="160" height="80" as="geometry" />
        </mxCell>
        <mxCell id="sve3FE1zwaEsIyAFE5Qh-3" value="" style="endArrow=classic;startArrow=classic;html=1;rounded=0;exitX=0.5;exitY=0;exitDx=0;exitDy=0;strokeWidth=3;entryX=0.5;entryY=1;entryDx=0;entryDy=0;" edge="1" parent="1" source="sve3FE1zwaEsIyAFE5Qh-1" target="c53XrRWpCATAmcm16bnj-24">
          <mxGeometry width="50" height="50" relative="1" as="geometry">
            <mxPoint x="530" y="490" as="sourcePoint" />
            <mxPoint x="530" y="410" as="targetPoint" />
          </mxGeometry>
        </mxCell>
      </root>
    </mxGraphModel>
  </diagram>
</mxfile>
